<svg xmlns="http://www.w3.org/2000/svg" xmlns:xlink="http://www.w3.org/1999/xlink">

  <symbol id="h-logo" viewBox="0 0 697 799" fill="none">
    <path fill-rule="evenodd" clip-rule="evenodd"
      d="M245.112 340H432.082C485.793 340 530.618 362.912 558.49 401.63C586.34 440.35 587.199 504.956 570.958 555.498L550.194 620.023C541.522 646.966 500.918 774.384 493 799H391C391 799 392.559 800.366 477.767 535.5C485.29 512.126 489.586 474.185 477.767 457.777C465.968 441.37 446.06 431.66 419.718 431.66H266.886C236.876 431.66 210.283 451.178 200.999 480.005L245.112 340Z"
      fill="url(#paint0_linear_22728_11332)" />
    <path fill-rule="evenodd" clip-rule="evenodd"
      d="M99.3445 799H-0.369385C84.4982 532.509 170.329 266.331 255.698 0H355.276C354.856 1.33198 354.431 2.6675 353.999 4.00646C215.866 429.03 262.985 285.497 99.3445 799Z"
      fill="#F0145A" />
    <linearGradient id="paint0_linear_22728_11332" x1="521.823" y1="798.999" x2="268.503"
      y2="516.696" gradientUnits="userSpaceOnUse">
      <stop stop-color="#F0145A" />
      <stop offset="1" stop-color="#693264" />
    </linearGradient>
  </symbol>


  <!--  -->
  <symbol id="logo-check" viewBox="0 0 42 42" fill="currentColor" stroke="white">
    <circle opacity="0.5" cx="21" cy="21" r="20" stroke="white" stroke-width="2" />
    <path d="M12 18L21 27L30 18" stroke="white" stroke-width="2" />
  </symbol>


  <!-- Services -->
  <symbol id="services-icon-1" viewBox="0 0 64 64" fill="none">
    <path
      d="M23.7339 28.125C24.8379 28.125 25.7339 27.229 25.7339 26.125V18.325C25.7339 14.838 28.5709 12 32.0579 12C35.5449 12 38.3829 14.838 38.3829 18.325V26.125C38.3829 27.229 39.2779 28.125 40.3829 28.125C41.4869 28.125 42.3829 27.229 42.3829 26.125V18.325C42.3839 12.632 37.7519 8 32.0579 8C26.3659 8 21.7339 12.632 21.7339 18.325V26.125C21.7339 27.229 22.6299 28.125 23.7339 28.125Z"
      fill="url(#paint0_linear_22728_7131)" />
    <path
      d="M55 23.6309H44.384V26.1249C44.384 28.3309 42.59 30.1249 40.384 30.1249C38.178 30.1249 36.384 28.3309 36.384 26.1249V23.6309H27.735V26.1249C27.735 28.3309 25.941 30.1249 23.735 30.1249C21.529 30.1249 19.735 28.3309 19.735 26.1249V23.6309H8.99997C8.44797 23.6309 8.10697 24.0659 8.23797 24.6019L15.236 53.0989C15.658 54.7009 17.344 55.9999 19 55.9999H45C46.658 55.9999 48.342 54.7009 48.766 53.0989L55.762 24.6019C55.893 24.0649 55.553 23.6309 55 23.6309Z"
      fill="url(#paint1_linear_22728_7131)" />
    <path
      d="M28.6001 34.4C28.6001 33.6265 29.2266 33 30.0001 33C30.7736 33 31.4001 33.6265 31.4001 34.4V41.35L31.4001 40C31.4001 39.2265 32.0266 38.6 32.8001 38.6C33.5736 38.6 34.2001 39.2265 34.2001 40V41.6764C34.2127 40.9141 34.8346 39.3 35.6 39.3C36.3731 39.3 36.9999 39.9268 37 40.7C37 40.7 37.0411 41.7411 37.1332 41.8033C37.3572 41.3285 37.8402 40 38.4 40C39.1732 40 39.8 40.6268 39.8 41.4V48.4C39.8 49.9463 38.5463 51.2 37 51.2H32.3198C30.8344 51.2 29.4099 50.6099 28.3599 49.5599L26.15 47.35L23 45.9402C23.0051 44.6033 24.0526 44.2 25.1 44.2C26.0023 44.2 26.8136 44.3407 28.6 45.25L28.6001 34.4Z"
      fill="white" />
    <defs>
      <linearGradient id="paint0_linear_22728_7131" x1="32.0584" y1="8" x2="32.0584" y2="28.125"
        gradientUnits="userSpaceOnUse">
        <stop stop-color="#EF8080" />
        <stop offset="1" stop-color="#F0145A" />
      </linearGradient>
      <linearGradient id="paint1_linear_22728_7131" x1="32" y1="23.6309" x2="32" y2="55.9999"
        gradientUnits="userSpaceOnUse">
        <stop stop-color="#EF8080" />
        <stop offset="1" stop-color="#F0145A" />
      </linearGradient>
    </defs>
  </symbol>


  <symbol id="footer-circle" viewBox="0 0 6 6" fill="#B3B3BA">
    <circle cx="3" cy="3" r="3" fill="#B3B3BA" />
  </symbol>
  <symbol id="footer-fb-icon" viewBox="0 0 38 38" fill="currentColor">
    <path
      d="M38 19.1161C38 8.55857 29.4934 0 19 0C8.50658 0 0 8.55857 0 19.1161C0 28.6575 6.94803 36.5659 16.0312 38V24.6419H11.207V19.1161H16.0312V14.9046C16.0312 10.1136 18.8678 7.46723 23.2078 7.46723C25.2866 7.46723 27.4609 7.84059 27.4609 7.84059V12.545H25.0651C22.7048 12.545 21.9688 14.0185 21.9688 15.5302V19.1161H27.2383L26.3959 24.6419H21.9688V38C31.052 36.5659 38 28.6575 38 19.1161Z"
      fill="currentColor" />
  </symbol>


  <symbol id="header-fb-icon" viewBox="0 0 24 24" fill="currentColor">
    <g clip-path="url(#clip0_111266_74)">
      <path
        d="M24 12.5733C24 5.90541 18.6274 0.5 12 0.5C5.37258 0.5 0 5.90541 0 12.5733C0 18.5995 4.38823 23.5943 10.125 24.5V16.0633H7.07813V12.5733H10.125V9.91343C10.125 6.88755 11.9165 5.21615 14.6576 5.21615C15.9705 5.21615 17.3438 5.45195 17.3438 5.45195V8.42313H15.8306C14.3399 8.42313 13.875 9.35379 13.875 10.3086V12.5733H17.2031L16.6711 16.0633H13.875V24.5C19.6118 23.5943 24 18.5995 24 12.5733Z"
        fill="currentColor" />
    </g>
    <defs>
      <clipPath id="clip0_111266_74">
        <rect width="24" height="24" fill="currentColor" transform="translate(0 0.5)" />
      </clipPath>
    </defs>
  </symbol>
</svg>